<svg xmlns="http://www.w3.org/2000/svg" width="920" height="410" viewBox="0 0 920 410">
<style>text{font-family:Arial,Helvetica,sans-serif;font-size:12px;fill:#263238}.title{font-size:15px;font-weight:700}.axis{stroke:#455a64;stroke-width:1}.grid{stroke:#d9e1e8;stroke-width:1}</style>
<rect width="100%" height="100%" fill="#ffffff"/>
<text x="58.0" y="34" class="title">Learning progress proxy</text>
<line x1="58.0" y1="352" x2="431.0" y2="352" class="axis"/>
<line x1="58.0" y1="58" x2="58.0" y2="352" class="axis"/>
<line x1="58.0" y1="352.0" x2="431.0" y2="352.0" class="grid"/>
<text x="50.0" y="356.0" text-anchor="end">0.00</text>
<line x1="58.0" y1="278.5" x2="431.0" y2="278.5" class="grid"/>
<text x="50.0" y="282.5" text-anchor="end">0.46</text>
<line x1="58.0" y1="205.0" x2="431.0" y2="205.0" class="grid"/>
<text x="50.0" y="209.0" text-anchor="end">0.91</text>
<line x1="58.0" y1="131.5" x2="431.0" y2="131.5" class="grid"/>
<text x="50.0" y="135.5" text-anchor="end">1.37</text>
<line x1="58.0" y1="58.0" x2="431.0" y2="58.0" class="grid"/>
<text x="50.0" y="62.0" text-anchor="end">1.82</text>
<rect x="86.0" y="350.1" width="54" height="1.9" fill="#7a8794" fill-opacity="0.82"/>
<text x="113.0" y="344.1" text-anchor="middle">0.012</text>
<text x="113.0" y="370" text-anchor="middle" transform="rotate(28 113.0 370)">random</text>
<rect x="158.0" y="96.3" width="54" height="255.7" fill="#d95f02" fill-opacity="0.82"/>
<text x="185.0" y="90.3" text-anchor="middle">1.584</text>
<text x="185.0" y="370" text-anchor="middle" transform="rotate(28 185.0 370)">irrelevant rule</text>
<rect x="230.0" y="275.1" width="54" height="76.9" fill="#1b9e77" fill-opacity="0.82"/>
<text x="257.0" y="269.1" text-anchor="middle">0.476</text>
<text x="257.0" y="370" text-anchor="middle" transform="rotate(28 257.0 370)">relevant rule</text>
<rect x="302.0" y="225.9" width="54" height="126.1" fill="#7570b3" fill-opacity="0.82"/>
<text x="329.0" y="219.9" text-anchor="middle">0.781</text>
<text x="329.0" y="370" text-anchor="middle" transform="rotate(28 329.0 370)">mixed rule</text>
<text x="489.0" y="34" class="title">Transfer accuracy</text>
<line x1="489.0" y1="352" x2="862.0" y2="352" class="axis"/>
<line x1="489.0" y1="58" x2="489.0" y2="352" class="axis"/>
<line x1="489.0" y1="352.0" x2="862.0" y2="352.0" class="grid"/>
<text x="481.0" y="356.0" text-anchor="end">0.45</text>
<line x1="489.0" y1="278.5" x2="862.0" y2="278.5" class="grid"/>
<text x="481.0" y="282.5" text-anchor="end">0.51</text>
<line x1="489.0" y1="205.0" x2="862.0" y2="205.0" class="grid"/>
<text x="481.0" y="209.0" text-anchor="end">0.57</text>
<line x1="489.0" y1="131.5" x2="862.0" y2="131.5" class="grid"/>
<text x="481.0" y="135.5" text-anchor="end">0.62</text>
<line x1="489.0" y1="58.0" x2="862.0" y2="58.0" class="grid"/>
<text x="481.0" y="62.0" text-anchor="end">0.68</text>
<rect x="517.0" y="252.7" width="54" height="99.3" fill="#7a8794" fill-opacity="0.82"/>
<text x="544.0" y="246.7" text-anchor="middle">0.528</text>
<text x="544.0" y="370" text-anchor="middle" transform="rotate(28 544.0 370)">random</text>
<rect x="589.0" y="239.5" width="54" height="112.5" fill="#d95f02" fill-opacity="0.82"/>
<text x="616.0" y="233.5" text-anchor="middle">0.538</text>
<text x="616.0" y="370" text-anchor="middle" transform="rotate(28 616.0 370)">irrelevant rule</text>
<rect x="661.0" y="200.6" width="54" height="151.4" fill="#1b9e77" fill-opacity="0.82"/>
<text x="688.0" y="194.6" text-anchor="middle">0.568</text>
<text x="688.0" y="370" text-anchor="middle" transform="rotate(28 688.0 370)">relevant rule</text>
<rect x="733.0" y="178.3" width="54" height="173.7" fill="#7570b3" fill-opacity="0.82"/>
<text x="760.0" y="172.3" text-anchor="middle">0.586</text>
<text x="760.0" y="370" text-anchor="middle" transform="rotate(28 760.0 370)">mixed rule</text>
</svg>
